<svg preserveAspectRatio="none" overflow="visible" style="display: block;" width="237.215" height="47.3096" viewBox="0 0 237.215 47.3096" fill="none" xmlns="http://www.w3.org/2000/svg">
<g id="Group">
<path id="Vector" d="M23.7214 0H2.09874e-05V47.3096H23.7214V0Z" fill="#211551"/>
<path id="Vector_2" d="M47.4426 0H23.7211V47.3096H47.4426V0Z" fill="#36248B"/>
<path id="Vector_3" d="M71.1638 0H47.4424V47.3096H71.1638V0Z" fill="#3E22B1"/>
<path id="Vector_4" d="M94.8862 0H71.1648V47.3096H94.8862V0Z" fill="#4D26DC"/>
<path id="Vector_5" d="M118.607 0H94.886V47.3096H118.607V0Z" fill="#5932F9"/>
<path id="Vector_6" d="M142.329 0H118.607V47.3096H142.329V0Z" fill="#6551FF"/>
<path id="Vector_7" d="M166.05 0H142.328V47.3096H166.05V0Z" fill="#7872FF"/>
<path id="Vector_8" d="M189.771 0H166.049V47.3096H189.771V0Z" fill="#9A9EFF"/>
<path id="Vector_9" d="M213.493 0H189.772V47.3096H213.493V0Z" fill="#C0C4FF"/>
<path id="Vector_10" d="M237.215 0H213.493V47.3096H237.215V0Z" fill="#DCDFFF"/>
</g>
</svg>
