<svg preserveAspectRatio="none" overflow="visible" style="display: block;" width="237.215" height="44.6444" viewBox="0 0 237.215 44.6444" fill="none" xmlns="http://www.w3.org/2000/svg">
<g id="Group">
<path id="Vector" d="M23.7214 0.000154692H2.09874e-05V44.6444H23.7214V0.000154692Z" fill="#010618"/>
<path id="Vector_2" d="M47.4426 0.000154692H23.7211V44.6444H47.4426V0.000154692Z" fill="#0B172D"/>
<path id="Vector_3" d="M71.1638 0.000154692H47.4424V44.6444H71.1638V0.000154692Z" fill="#18293F"/>
<path id="Vector_4" d="M94.8862 0.000154692H71.1648V44.6444H94.8862V0.000154692Z" fill="#2E425A"/>
<path id="Vector_5" d="M118.607 0.000154692H94.886V44.6444H118.607V0.000154692Z" fill="#40576E"/>
<path id="Vector_6" d="M142.329 0.000154692H118.607V44.6444H142.329V0.000154692Z" fill="#5E7690"/>
<path id="Vector_7" d="M166.05 0.000154692H142.328V44.6444H166.05V0.000154692Z" fill="#8CA3BB"/>
<path id="Vector_8" d="M189.771 0.000154692H166.049V44.6444H189.771V0.000154692Z" fill="#C7D5E3"/>
<path id="Vector_9" d="M213.493 0.000154692H189.772V44.6444H213.493V0.000154692Z" fill="#E1E8F2"/>
<path id="Vector_10" d="M237.215 0.000154692H213.493V44.6444H237.215V0.000154692Z" fill="#F7FAFF"/>
</g>
</svg>
